<?xml version="1.0" encoding="UTF-8"?>
<svg xmlns="http://www.w3.org/2000/svg" xmlns:xlink="http://www.w3.org/1999/xlink" width="20px" height="20px" viewBox="0 0 20 20" version="1.1">
<g id="surface1">
<path style="fill-rule:nonzero;fill:rgb(0%,0%,0%);fill-opacity:1;stroke-width:1;stroke-linecap:butt;stroke-linejoin:miter;stroke:rgb(0%,0%,0%);stroke-opacity:1;stroke-miterlimit:4;" d="M 210.8 281.4 C 208.9 278.5 206 276.5 202.6 275.8 L 199.5 275.4 C 197.3 275.4 195.2 276 193.1 277.1 C 189.9 279 187.7 282.2 187 285.9 C 185 295.2 181.3 302 176.1 306 C 171.4 309.4 165 311.2 157.1 311.2 C 146.6 311.2 138.6 307.7 132.5 300.5 C 125.6 292.4 122.1 280.4 122.1 264.7 C 122.1 249.4 125.6 237.4 132.5 229.2 C 138.8 221.8 146.9 218.2 157.1 218.2 C 165 218.2 171.5 219.9 176.4 223.4 C 181.7 227 185 232.5 186.4 239.9 C 187.3 245.1 190.1 247.9 192 249.2 C 194.1 250.7 196.5 251.5 198.9 251.5 L 201.8 251.1 C 205.2 250.3 207.9 248.5 209.8 245.7 C 211.7 242.8 212.5 239.5 211.9 235.8 C 209.6 223.5 204.2 213.6 195.7 206.2 C 186 197.8 173 193.6 157.1 193.6 C 139.1 193.6 124.3 200.3 113.2 213.6 C 102.2 226.6 96.6 243.8 96.6 264.7 C 96.6 286 102.2 303.3 113.2 316.1 C 124.3 329.1 139 335.8 157.1 335.8 C 173 335.8 186 331.2 195.7 322.3 C 203.9 314.9 209.5 304.8 212.5 292.2 C 213.7 287.2 212.2 283.5 210.8 281.4 Z M 210.8 281.4 " transform="matrix(0.0390625,0,0,0.0390625,0,0)"/>
<path style="fill-rule:nonzero;fill:rgb(0%,0%,0%);fill-opacity:1;stroke-width:1;stroke-linecap:butt;stroke-linejoin:miter;stroke:rgb(0%,0%,0%);stroke-opacity:1;stroke-miterlimit:4;" d="M 335.4 216.1 C 324 201.2 307.9 193.6 287.5 193.6 C 266.9 193.6 250.7 201.2 239.3 216.2 C 229.8 229 224.9 245.3 224.9 264.7 C 224.9 284.1 229.8 300.4 239.4 313.1 C 250.7 328.2 266.9 335.8 287.5 335.8 C 307.9 335.8 324 328.1 335.4 313.2 C 345.1 300.5 350.1 284.2 350.1 264.7 C 350.1 245.2 345.2 228.9 335.4 216.1 Z M 315.5 298.2 C 309.1 307 299.9 311.3 287.5 311.3 C 274.9 311.3 265.8 307 259.5 298.2 C 253.5 289.9 250.5 278.7 250.5 264.7 C 250.5 250.6 253.5 239.3 259.5 231.1 C 265.8 222.3 274.9 218 287.5 218 C 299.9 218 309.1 222.3 315.5 231.2 C 321.5 239.4 324.6 250.7 324.6 264.7 C 324.6 278.6 321.5 289.8 315.5 298.2 Z M 315.5 298.2 " transform="matrix(0.0390625,0,0,0.0390625,0,0)"/>
<path style="fill-rule:nonzero;fill:rgb(0%,0%,0%);fill-opacity:1;stroke-width:1;stroke-linecap:butt;stroke-linejoin:miter;stroke:rgb(0%,0%,0%);stroke-opacity:1;stroke-miterlimit:4;" d="M 427 356.9 C 424.5 354.5 421.2 353.1 417.7 353.1 L 386.5 353.1 C 388.5 350.8 392.5 347.1 400.9 341.9 L 402.9 340.5 C 411.8 334.8 417.4 330.5 420.5 326.9 C 426 320.6 428.8 312.6 428.8 303 C 428.8 293.9 425.7 286 419.6 279.7 C 406.1 265.7 379.9 265.8 366.7 279.8 C 360.7 286.1 357.7 293.9 357.7 303 L 357.7 306.1 C 357.7 310.9 359.6 314 361.6 316.2 C 366.6 321.2 375.8 320.8 380.1 316.5 C 382.9 313.9 384.5 310.4 384.5 306.5 L 384.5 303 C 384.5 300 385.5 298.5 386.5 297.5 C 387.5 296.4 389.2 295.1 393.2 295.1 C 397.2 295.1 399 296.4 400.1 297.6 C 401 298.5 402 300 402 303 C 402 306.5 401.1 309.2 399.1 311.4 C 397.9 312.8 394.4 315.9 385 321.7 C 375.4 327.5 368.1 334 363.4 341.2 C 358 349.3 355.3 358.8 355.4 369.6 L 355.5 379.1 L 417.7 379.1 C 421.4 379.1 424.9 377.5 427 375.2 C 429.4 372.7 430.7 369.5 430.7 366.1 C 430.7 362.6 429.4 359.4 427 356.9 Z M 427 356.9 " transform="matrix(0.0390625,0,0,0.0390625,0,0)"/>
<path style="fill-rule:nonzero;fill:rgb(0%,0%,0%);fill-opacity:1;stroke-width:1;stroke-linecap:butt;stroke-linejoin:miter;stroke:rgb(0%,0%,0%);stroke-opacity:1;stroke-miterlimit:4;" d="M 426.6 199.9 C 402.1 119.5 327.7 64 243.2 64 C 162.3 64 90.5 114.6 62.9 190.4 C 23.4 216.7 0 260 0 307.2 C 0 384.8 63.2 448 140.8 448 C 156.5 448 172.2 445.2 187.6 439.7 C 231.8 453.2 279.2 450.1 321.2 431.3 C 340.5 442.2 362.1 448 384 448 C 454.6 448 512 390.6 512 320 C 512 265.4 478 217.9 426.6 199.9 Z M 384 422.4 C 364.6 422.4 345.5 416.8 328.8 406 L 322.8 402.1 L 316.3 405.3 C 277.3 424.5 232.6 427.6 191.3 414 L 186.9 412.6 L 182.6 414.2 C 168.8 419.6 154.7 422.4 140.8 422.4 C 77.3 422.4 25.6 370.7 25.6 307.2 C 25.6 267.4 46 230.9 80.2 209.6 L 84.1 207.2 L 85.6 202.8 C 108.5 135.1 171.8 89.6 243.2 89.6 C 318.4 89.6 384.5 140.4 403.8 213.2 L 405.7 220.2 L 412.6 222.2 C 456.7 235.1 486.4 274.4 486.4 320 C 486.4 376.5 440.5 422.4 384 422.4 Z M 384 422.4 " transform="matrix(0.0390625,0,0,0.0390625,0,0)"/>
</g>
</svg>
