<?xml version="1.0" encoding="UTF-8"?>
<svg xmlns="http://www.w3.org/2000/svg" xmlns:xlink="http://www.w3.org/1999/xlink" width="20px" height="20px" viewBox="0 0 20 20" version="1.1">
<g id="surface1">
<path style=" stroke:none;fill-rule:evenodd;fill:rgb(0%,0%,0%);fill-opacity:1;" d="M 9.300781 8.96875 L 11.648438 6.898438 L 11.03125 9.96875 L 12.1875 10.632812 L 13.066406 4.449219 L 8.144531 8.300781 Z M 10 18.667969 C 5.210938 18.667969 1.332031 14.789062 1.332031 10 C 1.332031 5.214844 5.210938 1.332031 10 1.332031 C 14.789062 1.332031 18.667969 5.214844 18.667969 10 C 18.667969 14.789062 14.789062 18.667969 10 18.667969 Z M 10.003906 0.0078125 C 4.484375 0.0078125 0.0078125 4.484375 0.0078125 10.003906 C 0.0078125 15.523438 4.484375 20 10.003906 20 C 15.523438 20 20 15.523438 20 10.003906 C 20 4.484375 15.523438 0.0078125 10.003906 0.0078125 Z M 10.667969 10.332031 C 10.667969 9.78125 10.21875 9.332031 9.667969 9.332031 C 9.113281 9.332031 8.667969 9.78125 8.667969 10.332031 C 8.667969 10.886719 9.113281 11.332031 9.667969 11.332031 C 10.21875 11.332031 10.667969 10.886719 10.667969 10.332031 Z M 7.683594 13.769531 L 8.300781 10.699219 L 7.144531 10.03125 L 6.269531 16.21875 L 11.1875 12.367188 L 10.03125 11.699219 Z M 7.683594 13.769531 "/>
</g>
</svg>
