<svg width="62" height="62" viewBox="0 0 62 62" fill="none" xmlns="http://www.w3.org/2000/svg">
<path d="M52.8792 54.23C52.5392 53.85 52.1792 53.47 51.7792 53.12C51.2292 52.61 50.9892 51.86 51.0992 51.12C52.2892 43.2 52.6092 35.21 52.0592 27.24C51.8792 24.64 51.5892 22.05 51.2292 19.47H10.0592C8.56918 29.96 8.60918 40.61 10.1892 51.11C10.2992 51.85 10.0392 52.6 9.49918 53.11C9.11918 53.46 8.74918 53.84 8.39918 54.22C5.58918 57.33 5.44918 59.91 6.93918 61.27C8.43918 62.61 10.9992 62.21 13.7992 59.1L13.8092 59.09C14.4092 58.42 15.3392 58.14 16.2092 58.4C20.9092 59.75 25.4692 60.46 29.9992 60.51C34.9692 60.59 39.9292 59.88 45.0692 58.4C45.9392 58.14 46.8692 58.42 47.4692 59.09L47.4792 59.1C50.2792 62.21 52.8492 62.61 54.3392 61.27C55.8392 59.92 55.6692 57.34 52.8792 54.23ZM33.6192 41.29C32.4892 42.76 31.7892 44.71 32.4792 47.21C32.6292 47.74 32.3092 48.29 31.7792 48.44C31.6892 48.46 31.5992 48.48 31.5092 48.48C31.0692 48.48 30.6692 48.19 30.5492 47.75C30.3292 46.94 30.2192 46.16 30.2092 45.43C30.2092 45.42 30.1992 45.41 30.1992 45.4C30.1492 42.78 28.8992 41.1 27.3892 40.01C25.6492 41.53 22.3492 41.14 20.7692 39.04C18.6292 36.19 15.2392 36.26 15.2392 36.26C20.6492 29.67 28.8392 32.58 28.5092 37.63C28.4892 37.86 28.4592 38.08 28.4092 38.29C29.5292 39.07 30.5092 40.09 31.1992 41.38C31.5392 40.75 31.9492 40.17 32.3992 39.64C31.5792 37.22 33.8792 34.22 36.7292 34.06C40.2892 33.86 42.1092 30.99 42.1092 30.99C44.5892 39.16 37.6492 44.35 33.6192 41.29Z" fill="#64748B"/>
<path d="M53.8192 17.48C54.2892 16.98 54.5792 16.31 54.5792 15.57C54.5792 14.02 53.3292 12.75 51.7692 12.75H9.50919C8.73919 12.75 8.02919 13.06 7.51919 13.58C7.01919 14.08 6.69919 14.8 6.69919 15.57C6.69919 16.31 6.98919 16.98 7.45919 17.48H53.8192Z" fill="#64748B"/>
<path d="M45.8692 7.07H45.8392C45.5492 4.64 43.4792 2.75 40.9592 2.75C40.2692 2.75 39.6192 2.9 39.0292 3.15C38.1892 1.64 36.5792 0.63 34.7292 0.63C33.2792 0.63 31.9592 1.27 31.0692 2.28C30.1892 0.91 28.6492 0 26.8992 0C24.7492 0 22.9092 1.4 22.2492 3.34C21.7592 3.16 21.2092 3.07 20.6592 3.07C17.9492 3.07 15.7392 5.27 15.7392 7.99V8C15.6192 7.99 15.5092 7.99 15.3792 7.99C13.4392 7.99 11.7792 9.13 10.9792 10.76H50.5992C50.0592 8.64 48.1492 7.07 45.8692 7.07Z" fill="#64748B"/>
</svg>
