<svg width="592" height="592" viewBox="0 0 592 592" fill="none" xmlns="http://www.w3.org/2000/svg">
<path d="M105.085 533.588C107.085 530.588 110.085 528.588 114.085 529.588C117.085 530.588 119.085 533.588 118.085 537.588V538.588C118.085 539.588 118.085 540.588 118.085 542.588C118.085 545.588 115.085 548.588 111.085 548.588C108.085 548.588 105.085 545.588 105.085 542.588C105.085 539.588 105.085 536.588 105.085 533.588ZM337.085 221.588C357.085 220.588 370.085 233.588 383.085 245.588C390.085 245.588 397.085 245.588 404.085 245.588C421.085 246.588 438.085 248.588 455.085 252.588C438.085 208.588 386.085 190.588 342.085 198.588C286.085 208.588 251.085 253.588 239.085 305.588C256.085 302.588 274.085 305.588 291.085 309.588C312.085 315.588 333.085 320.588 355.085 320.588C377.085 319.588 402.085 315.588 420.085 301.588C432.085 290.588 442.085 277.588 453.085 265.588C437.085 261.588 420.085 259.588 404.085 259.588C398.085 258.588 393.085 258.588 388.085 259.588C388.085 259.588 387.085 260.588 386.085 261.588C376.085 268.588 372.085 279.588 367.085 291.588C364.085 299.588 352.085 295.588 355.085 287.588C358.085 277.588 363.085 268.588 369.085 260.588C349.085 262.588 329.085 266.588 311.085 275.588C303.085 278.588 296.085 267.588 304.085 263.588C323.085 254.588 344.085 249.588 365.085 247.588C358.085 239.588 349.085 233.588 337.085 234.588C329.085 235.588 329.085 221.588 337.085 221.588ZM495.085 282.588C486.085 276.588 477.085 272.588 467.085 269.588C467.085 270.588 466.085 270.588 466.085 271.588C452.085 285.588 441.085 301.588 425.085 313.588C409.085 325.588 388.085 331.588 367.085 332.588C345.085 334.588 322.085 331.588 300.085 325.588C278.085 320.588 256.085 314.588 234.085 320.588C233.085 320.588 233.085 321.588 232.085 321.588C228.085 322.588 225.085 319.588 224.085 316.588C224.085 315.588 224.085 314.588 224.085 312.588C235.085 250.588 277.085 194.588 343.085 185.588C396.085 177.588 455.085 201.588 470.085 256.588C481.085 260.588 492.085 264.588 502.085 270.588C509.085 275.588 503.085 286.588 495.085 282.588ZM577.085 280.588C574.085 284.588 565.085 283.588 565.085 276.588C565.085 271.588 560.085 263.588 558.085 257.588C552.085 247.588 546.085 236.588 540.085 226.588C526.085 203.588 511.085 180.588 497.085 158.588C485.085 137.588 475.085 115.588 464.085 94.5885C450.085 69.5885 432.085 38.5885 404.085 26.5885C399.085 24.5885 398.085 18.5885 401.085 15.5885C396.085 6.58846 390.085 -2.41154 381.085 0.588457C372.085 2.58846 367.085 8.58846 362.085 15.5885C363.085 15.5885 364.085 15.5885 365.085 15.5885C373.085 13.5885 377.085 26.5885 369.085 27.5885C312.085 35.5885 259.085 65.5885 209.085 92.5885C162.085 117.588 116.085 145.588 77.0851 182.588C77.0851 184.588 76.0851 186.588 72.0851 187.588C72.0851 187.588 71.0851 187.588 71.0851 188.588C69.0851 188.588 68.0851 189.588 66.0851 188.588C54.0851 190.588 42.0851 189.588 30.0851 192.588C19.0851 194.588 10.0851 200.588 9.08513 211.588C8.08513 231.588 16.0851 252.588 23.0851 271.588C43.0851 325.588 71.0851 376.588 108.085 420.588C110.085 417.588 113.085 414.588 116.085 411.588C121.085 405.588 118.085 398.588 120.085 392.588C120.085 388.588 121.085 384.588 122.085 380.588C124.085 374.588 128.085 370.588 132.085 367.588C128.085 362.588 125.085 358.588 122.085 354.588C103.085 331.588 83.0851 308.588 66.0851 284.588C58.0851 273.588 50.0851 262.588 43.0851 250.588C41.0851 245.588 38.0851 240.588 35.0851 236.588C33.0851 234.588 31.0851 232.588 29.0851 231.588C31.0851 239.588 20.0851 244.588 17.0851 237.588C13.0851 227.588 14.0851 216.588 28.0851 218.588C41.0851 219.588 47.0851 230.588 54.0851 241.588C72.0851 274.588 97.0851 303.588 121.085 332.588C144.085 360.588 167.085 389.588 187.085 419.588C197.085 434.588 206.085 449.588 215.085 465.588C221.085 474.588 230.085 486.588 223.085 497.588C219.085 504.588 208.085 497.588 212.085 490.588C212.085 489.588 213.085 488.588 212.085 486.588C212.085 487.588 211.085 487.588 210.085 487.588C204.085 488.588 198.085 490.588 192.085 493.588C204.085 501.588 217.085 510.588 230.085 511.588C246.085 511.588 241.085 491.588 238.085 481.588C236.085 473.588 249.085 469.588 251.085 478.588C252.085 479.588 252.085 481.588 252.085 484.588C317.085 450.588 381.085 414.588 445.085 378.588C478.085 360.588 510.085 340.588 539.085 317.588C549.085 309.588 558.085 303.588 569.085 297.588C571.085 296.588 582.085 291.588 582.085 288.588C582.085 285.588 580.085 282.588 577.085 280.588ZM114.085 496.588C115.085 492.588 116.085 489.588 118.085 486.588C120.085 484.588 124.085 482.588 127.085 484.588C130.085 486.588 131.085 490.588 129.085 493.588C129.085 494.588 128.085 495.588 127.085 496.588C127.085 497.588 127.085 497.588 127.085 497.588C127.085 498.588 127.085 499.588 126.085 499.588C126.085 503.588 122.085 505.588 118.085 504.588C115.085 503.588 113.085 499.588 114.085 496.588ZM129.085 442.588C133.085 434.588 145.085 441.588 140.085 449.588C139.085 451.588 137.085 454.588 138.085 456.588C138.085 460.588 137.085 463.588 133.085 464.588C130.085 465.588 126.085 463.588 125.085 460.588C123.085 453.588 126.085 448.588 129.085 442.588ZM135.085 417.588C136.085 415.588 137.085 412.588 138.085 410.588C140.085 407.588 144.085 406.588 147.085 408.588C150.085 409.588 152.085 414.588 150.085 417.588C150.085 417.588 149.085 418.588 149.085 419.588L148.085 420.588C147.085 424.588 144.085 426.588 140.085 425.588C137.085 424.588 134.085 420.588 135.085 417.588ZM96.0851 536.588C95.0851 541.588 97.0851 546.588 99.0851 551.588C102.085 558.588 105.085 565.588 104.085 573.588C104.085 578.588 103.085 584.588 105.085 589.588C107.085 595.588 113.085 584.588 114.085 582.588C116.085 575.588 117.085 568.588 120.085 562.588C124.085 555.588 130.085 553.588 136.085 549.588C141.085 545.588 138.085 536.588 141.085 531.588C144.085 527.588 147.085 522.588 150.085 518.588C155.085 510.588 160.085 502.588 166.085 496.588C177.085 484.588 191.085 478.588 206.085 474.588C203.085 470.588 200.085 465.588 198.085 460.588C190.085 447.588 182.085 435.588 174.085 423.588C163.085 407.588 152.085 392.588 140.085 377.588C128.085 388.588 138.085 408.588 125.085 420.588C122.085 424.588 117.085 427.588 116.085 432.588C115.085 437.588 116.085 442.588 117.085 447.588C120.085 455.588 121.085 463.588 118.085 472.588C114.085 482.588 107.085 493.588 108.085 504.588C108.085 511.588 108.085 518.588 104.085 524.588C101.085 528.588 97.0851 532.588 96.0851 536.588Z" fill="#64748B"/>
</svg>
