<svg width="18" height="18" viewBox="0 0 18 18" fill="none" xmlns="http://www.w3.org/2000/svg">
<path d="M8.16663 17.3333V13.875L5.45829 16.5417L4.29163 15.375L8.16663 11.5V9.83332H6.49996L2.62496 13.7083L1.45829 12.5417L4.12496 9.83332H0.666626V8.16666H4.12496L1.45829 5.45832L2.62496 4.29166L6.49996 8.16666H8.16663V6.49999L4.29163 2.62499L5.45829 1.45832L8.16663 4.12499V0.666656H9.83329V4.12499L12.5416 1.45832L13.7083 2.62499L9.83329 6.49999V8.16666H11.5L15.375 4.29166L16.5416 5.45832L13.875 8.16666H17.3333V9.83332H13.875L16.5416 12.5417L15.375 13.7083L11.5 9.83332H9.83329V11.5L13.7083 15.375L12.5416 16.5417L9.83329 13.875V17.3333H8.16663Z" fill="#545762"/>
</svg>
