<svg width="17" height="17" viewBox="0 0 17 17" fill="none" xmlns="http://www.w3.org/2000/svg">
<path d="M15.5 7.5L15.0312 6.46875L14 6L15.0312 5.53125L15.5 4.5L15.9688 5.53125L17 6L15.9688 6.46875L15.5 7.5ZM13.25 4.5L12.5375 2.9625L11 2.25L12.5375 1.5375L13.25 0L13.9625 1.5375L15.5 2.25L13.9625 2.9625L13.25 4.5ZM5.75 16.5C5.3375 16.5 4.9845 16.3533 4.691 16.0597C4.397 15.7657 4.25 15.4125 4.25 15H7.25C7.25 15.4125 7.10325 15.7657 6.80975 16.0597C6.51575 16.3533 6.1625 16.5 5.75 16.5ZM2.75 14.25V12.75H8.75V14.25H2.75ZM2.9375 12C2.075 11.4875 1.39075 10.8 0.88475 9.9375C0.37825 9.075 0.125 8.1375 0.125 7.125C0.125 5.5625 0.672 4.2345 1.766 3.141C2.8595 2.047 4.1875 1.5 5.75 1.5C7.3125 1.5 8.6405 2.047 9.734 3.141C10.828 4.2345 11.375 5.5625 11.375 7.125C11.375 8.1375 11.122 9.075 10.616 9.9375C10.1095 10.8 9.425 11.4875 8.5625 12H2.9375ZM3.3875 10.5H8.1125C8.675 10.1 9.10925 9.60625 9.41525 9.01875C9.72175 8.43125 9.875 7.8 9.875 7.125C9.875 5.975 9.475 5 8.675 4.2C7.875 3.4 6.9 3 5.75 3C4.6 3 3.625 3.4 2.825 4.2C2.025 5 1.625 5.975 1.625 7.125C1.625 7.8 1.77825 8.43125 2.08475 9.01875C2.39075 9.60625 2.825 10.1 3.3875 10.5ZM3.3875 10.5C2.825 10.1 2.39075 9.60625 2.08475 9.01875C1.77825 8.43125 1.625 7.8 1.625 7.125C1.625 5.975 2.025 5 2.825 4.2C3.625 3.4 4.6 3 5.75 3C6.9 3 7.875 3.4 8.675 4.2C9.475 5 9.875 5.975 9.875 7.125C9.875 7.8 9.72175 8.43125 9.41525 9.01875C9.10925 9.60625 8.675 10.1 8.1125 10.5H3.3875Z" fill="white"/>
</svg>
