<svg width="805" height="805" viewBox="0 0 805 805" fill="none" xmlns="http://www.w3.org/2000/svg">
<g clip-path="url(#clip0_419_186)">
<path d="M218.03 175.137C218.03 176.137 217.03 177.137 217.03 178.137C173.03 220.137 132.03 266.137 96.03 316.137C96.03 316.137 96.03 316.137 96.03 317.137C95.03 319.137 92.03 320.137 89.03 319.137C21.03 299.137 25.03 208.137 62.03 162.137C81.03 137.137 113.03 116.137 145.03 118.137C178.03 119.137 204.03 139.137 220.03 167.137C222.03 170.137 221.03 173.137 218.03 175.137ZM733.03 639.137C730.03 645.137 726.03 652.137 724.03 659.137C722.03 665.137 720.03 671.137 725.03 676.137C729.03 679.137 735.03 681.137 738.03 677.137C744.03 670.137 740.03 658.137 738.03 651.137C736.03 647.137 735.03 643.137 733.03 639.137ZM802.03 692.137C801.03 688.137 799.03 684.137 797.03 680.137C794.03 686.137 790.03 693.137 788.03 700.137C787.03 706.137 785.03 712.137 790.03 717.137C793.03 720.137 799.03 722.137 803.03 718.137C805.03 715.137 805.03 712.137 805.03 709.137V708.137C805.03 702.137 804.03 696.137 802.03 692.137ZM791.03 556.137C789.03 548.137 786.03 540.137 782.03 533.137C776.03 544.137 769.03 555.137 766.03 568.137C764.03 576.137 763.03 585.137 770.03 591.137C775.03 595.137 784.03 598.137 790.03 592.137C799.03 583.137 795.03 567.137 791.03 556.137ZM684.03 444.137C645.03 446.137 607.03 448.137 568.03 450.137C536.03 452.137 502.03 455.137 470.03 453.137C468.03 453.137 466.03 452.137 465.03 451.137C463.03 449.137 462.03 447.137 463.03 445.137C473.03 403.137 482.03 360.137 488.03 317.137C491.03 298.137 494.03 279.137 495.03 259.137C495.03 246.137 497.03 231.137 493.03 218.137C490.03 209.137 479.03 202.137 471.03 198.137C458.03 189.137 444.03 182.137 430.03 175.137C414.03 166.137 396.03 159.137 379.03 151.137C378.03 151.137 377.03 151.137 377.03 150.137C354.03 139.137 328.03 124.137 302.03 123.137C282.03 123.137 266.03 134.137 251.03 146.137C249.03 148.137 247.03 148.137 245.03 148.137C242.03 149.137 239.03 148.137 237.03 145.137C237.03 143.137 236.03 141.137 235.03 140.137C216.03 103.137 178.03 83.1368 136.03 85.1368C102.03 86.1368 75.03 103.137 51.03 128.137C24.03 157.137 2.03005 196.137 1.03005 237.137C0.0300482 283.137 24.03 328.137 67.03 346.137C68.03 346.137 68.03 346.137 69.03 347.137C72.03 349.137 73.03 352.137 71.03 356.137C65.03 367.137 58.03 379.137 53.03 391.137C50.03 399.137 46.03 409.137 46.03 417.137C45.03 424.137 50.03 432.137 54.03 437.137C70.03 459.137 94.03 475.137 117.03 490.137C144.03 507.137 172.03 524.137 202.03 538.137C203.03 538.137 204.03 538.137 206.03 539.137C252.03 559.137 302.03 576.137 352.03 585.137C367.03 588.137 384.03 590.137 399.03 589.137C404.03 589.137 408.03 588.137 411.03 585.137C419.03 576.137 424.03 564.137 429.03 553.137C430.03 552.137 431.03 551.137 432.03 550.137C433.03 550.137 434.03 550.137 435.03 549.137C517.03 529.137 599.03 506.137 682.03 487.137C683.03 486.137 684.03 486.137 685.03 487.137H686.03C706.03 489.137 725.03 499.137 743.03 509.137C746.03 494.137 749.03 479.137 751.03 464.137C752.03 455.137 752.03 446.137 753.03 437.137C753.03 432.137 754.03 427.137 753.03 422.137C731.03 431.137 708.03 444.137 684.03 444.137Z" fill="#64748B"/>
</g>
<defs>
<clipPath id="clip0_419_186">
<rect width="805" height="805" fill="white"/>
</clipPath>
</defs>
</svg>
