<svg width="20" height="20" viewBox="0 0 20 20" fill="none" xmlns="http://www.w3.org/2000/svg">
<path d="M10 4.16667C9.76393 4.16667 9.56615 4.08667 9.40671 3.92667C9.24671 3.76722 9.16671 3.56945 9.16671 3.33334V1.66667C9.16671 1.43056 9.24671 1.2325 9.40671 1.0725C9.56615 0.913058 9.76393 0.833336 10 0.833336C10.2362 0.833336 10.4342 0.913058 10.5942 1.0725C10.7537 1.2325 10.8334 1.43056 10.8334 1.66667V3.33334C10.8334 3.56945 10.7537 3.76722 10.5942 3.92667C10.4342 4.08667 10.2362 4.16667 10 4.16667ZM14.125 5.875C13.9723 5.72223 13.8959 5.53111 13.8959 5.30167C13.8959 5.07278 13.9723 4.875 14.125 4.70834L15.2917 3.52084C15.4584 3.35417 15.6562 3.27084 15.885 3.27084C16.1145 3.27084 16.3125 3.35417 16.4792 3.52084C16.632 3.67361 16.7084 3.86806 16.7084 4.10417C16.7084 4.34028 16.632 4.53472 16.4792 4.6875L15.2917 5.875C15.1389 6.02778 14.9445 6.10417 14.7084 6.10417C14.4723 6.10417 14.2778 6.02778 14.125 5.875ZM16.6667 10.8333C16.4306 10.8333 16.2328 10.7533 16.0734 10.5933C15.9134 10.4339 15.8334 10.2361 15.8334 10C15.8334 9.76389 15.9134 9.56584 16.0734 9.40584C16.2328 9.24639 16.4306 9.16667 16.6667 9.16667H18.3334C18.5695 9.16667 18.7673 9.24639 18.9267 9.40584C19.0867 9.56584 19.1667 9.76389 19.1667 10C19.1667 10.2361 19.0867 10.4339 18.9267 10.5933C18.7673 10.7533 18.5695 10.8333 18.3334 10.8333H16.6667ZM10 19.1667C9.76393 19.1667 9.56615 19.0867 9.40671 18.9267C9.24671 18.7672 9.16671 18.5694 9.16671 18.3333V16.6667C9.16671 16.4306 9.24671 16.2328 9.40671 16.0733C9.56615 15.9133 9.76393 15.8333 10 15.8333C10.2362 15.8333 10.4342 15.9133 10.5942 16.0733C10.7537 16.2328 10.8334 16.4306 10.8334 16.6667V18.3333C10.8334 18.5694 10.7537 18.7672 10.5942 18.9267C10.4342 19.0867 10.2362 19.1667 10 19.1667ZM4.70837 5.875L3.52087 4.70834C3.35421 4.54167 3.27087 4.34028 3.27087 4.10417C3.27087 3.86806 3.35421 3.67361 3.52087 3.52084C3.67365 3.36806 3.8681 3.29167 4.10421 3.29167C4.34032 3.29167 4.53476 3.36806 4.68754 3.52084L5.87504 4.70834C6.02782 4.86111 6.10421 5.05556 6.10421 5.29167C6.10421 5.52778 6.02782 5.72223 5.87504 5.875C5.70837 6.02778 5.51393 6.10417 5.29171 6.10417C5.06949 6.10417 4.87504 6.02778 4.70837 5.875ZM15.2917 16.4792L14.125 15.2917C13.9723 15.125 13.8959 14.9272 13.8959 14.6983C13.8959 14.4689 13.9723 14.2778 14.125 14.125C14.2778 13.9722 14.4689 13.8958 14.6984 13.8958C14.9273 13.8958 15.125 13.9722 15.2917 14.125L16.4792 15.2917C16.6459 15.4444 16.7256 15.6389 16.7184 15.875C16.7117 16.1111 16.632 16.3125 16.4792 16.4792C16.3125 16.6458 16.1112 16.7292 15.875 16.7292C15.6389 16.7292 15.4445 16.6458 15.2917 16.4792ZM1.66671 10.8333C1.4306 10.8333 1.23282 10.7533 1.07337 10.5933C0.913374 10.4339 0.833374 10.2361 0.833374 10C0.833374 9.76389 0.913374 9.56584 1.07337 9.40584C1.23282 9.24639 1.4306 9.16667 1.66671 9.16667H3.33337C3.56949 9.16667 3.76754 9.24639 3.92754 9.40584C4.08699 9.56584 4.16671 9.76389 4.16671 10C4.16671 10.2361 4.08699 10.4339 3.92754 10.5933C3.76754 10.7533 3.56949 10.8333 3.33337 10.8333H1.66671ZM3.52087 16.4792C3.3681 16.3264 3.29171 16.1319 3.29171 15.8958C3.29171 15.6597 3.3681 15.4653 3.52087 15.3125L4.70837 14.125C4.86115 13.9722 5.05226 13.8958 5.28171 13.8958C5.5106 13.8958 5.70837 13.9722 5.87504 14.125C6.04171 14.2917 6.12504 14.4897 6.12504 14.7192C6.12504 14.9481 6.04171 15.1458 5.87504 15.3125L4.70837 16.4792C4.54171 16.6458 4.34032 16.7292 4.10421 16.7292C3.8681 16.7292 3.67365 16.6458 3.52087 16.4792ZM10 15C8.61115 15 7.4306 14.5139 6.45837 13.5417C5.48615 12.5694 5.00004 11.3889 5.00004 10C5.00004 8.61111 5.48615 7.43056 6.45837 6.45834C7.4306 5.48611 8.61115 5 10 5C11.3889 5 12.5695 5.48611 13.5417 6.45834C14.5139 7.43056 15 8.61111 15 10C15 11.3889 14.5139 12.5694 13.5417 13.5417C12.5695 14.5139 11.3889 15 10 15ZM10 13.3333C10.9167 13.3333 11.7014 13.0069 12.3542 12.3542C13.007 11.7014 13.3334 10.9167 13.3334 10C13.3334 9.08334 13.007 8.29861 12.3542 7.64584C11.7014 6.99306 10.9167 6.66667 10 6.66667C9.08337 6.66667 8.29865 6.99306 7.64587 7.64584C6.9931 8.29861 6.66671 9.08334 6.66671 10C6.66671 10.9167 6.9931 11.7014 7.64587 12.3542C8.29865 13.0069 9.08337 13.3333 10 13.3333Z" fill="#545762"/>
</svg>
