<svg width="18" height="18" viewBox="0 0 18 18" fill="none" xmlns="http://www.w3.org/2000/svg">
<path d="M9.00002 14.8333C10.3889 14.8333 11.5695 14.3472 12.5417 13.375C13.5139 12.4028 14 11.2222 14 9.83333C12.6111 9.83333 11.4306 10.3194 10.4584 11.2917C9.48613 12.2639 9.00002 13.4444 9.00002 14.8333ZM9.00002 14.8333C9.00002 13.4444 8.51391 12.2639 7.54169 11.2917C6.56946 10.3194 5.38891 9.83333 4.00002 9.83333C4.00002 11.2222 4.48613 12.4028 5.45835 13.375C6.43058 14.3472 7.61113 14.8333 9.00002 14.8333ZM9.00002 10.625C9.36113 10.625 9.66669 10.5 9.91669 10.25C10.1667 10 10.2917 9.69444 10.2917 9.33333V9.20833C10.4028 9.29167 10.5175 9.35417 10.6359 9.39583C10.7536 9.4375 10.8889 9.45833 11.0417 9.45833C11.4028 9.45833 11.7084 9.33333 11.9584 9.08333C12.2084 8.83333 12.3334 8.52778 12.3334 8.16667C12.3334 7.88889 12.2672 7.64583 12.135 7.4375C12.0034 7.22917 11.8195 7.08333 11.5834 7C11.8195 6.91667 12.0034 6.77083 12.135 6.5625C12.2672 6.35417 12.3334 6.11111 12.3334 5.83333C12.3334 5.47222 12.2084 5.16667 11.9584 4.91667C11.7084 4.66667 11.4028 4.54167 11.0417 4.54167C10.8889 4.54167 10.7536 4.5625 10.6359 4.60417C10.5175 4.64583 10.4028 4.70833 10.2917 4.79167V4.66667C10.2917 4.30556 10.1667 4 9.91669 3.75C9.66669 3.5 9.36113 3.375 9.00002 3.375C8.63891 3.375 8.33335 3.5 8.08335 3.75C7.83335 4 7.70835 4.30556 7.70835 4.66667V4.79167C7.59724 4.70833 7.4828 4.64583 7.36502 4.60417C7.24669 4.5625 7.11113 4.54167 6.95835 4.54167C6.59724 4.54167 6.29169 4.66667 6.04169 4.91667C5.79169 5.16667 5.66669 5.47222 5.66669 5.83333C5.66669 6.11111 5.7328 6.35417 5.86502 6.5625C5.99669 6.77083 6.18058 6.91667 6.41669 7C6.18058 7.08333 5.99669 7.22917 5.86502 7.4375C5.7328 7.64583 5.66669 7.88889 5.66669 8.16667C5.66669 8.52778 5.79169 8.83333 6.04169 9.08333C6.29169 9.33333 6.59724 9.45833 6.95835 9.45833C7.11113 9.45833 7.24669 9.4375 7.36502 9.39583C7.4828 9.35417 7.59724 9.29167 7.70835 9.20833V9.33333C7.70835 9.69444 7.83335 10 8.08335 10.25C8.33335 10.5 8.63891 10.625 9.00002 10.625ZM9.00002 8.29167C8.63891 8.29167 8.33335 8.17 8.08335 7.92667C7.83335 7.68389 7.70835 7.375 7.70835 7C7.70835 6.63889 7.83335 6.33333 8.08335 6.08333C8.33335 5.83333 8.63891 5.70833 9.00002 5.70833C9.36113 5.70833 9.66669 5.83333 9.91669 6.08333C10.1667 6.33333 10.2917 6.63889 10.2917 7C10.2917 7.375 10.1667 7.68389 9.91669 7.92667C9.66669 8.17 9.36113 8.29167 9.00002 8.29167ZM2.33335 17.3333C1.87502 17.3333 1.4828 17.1703 1.15669 16.8442C0.83002 16.5175 0.666687 16.125 0.666687 15.6667V2.33333C0.666687 1.875 0.83002 1.4825 1.15669 1.15583C1.4828 0.829721 1.87502 0.666666 2.33335 0.666666H15.6667C16.125 0.666666 16.5175 0.829721 16.8442 1.15583C17.1703 1.4825 17.3334 1.875 17.3334 2.33333V15.6667C17.3334 16.125 17.1703 16.5175 16.8442 16.8442C16.5175 17.1703 16.125 17.3333 15.6667 17.3333H2.33335Z" fill="#545762"/>
</svg>
