<svg width="14" height="17" viewBox="0 0 14 17" fill="none" xmlns="http://www.w3.org/2000/svg">
<path d="M6.99998 16.5C5.15276 16.5 3.57998 15.8611 2.28165 14.5833C0.982757 13.3056 0.333313 11.7569 0.333313 9.9375C0.333313 9.02083 0.506924 8.17 0.854146 7.385C1.20137 6.60055 1.68054 5.90278 2.29165 5.29166L6.99998 0.666664L11.7083 5.29166C12.3194 5.90278 12.7986 6.60055 13.1458 7.385C13.493 8.17 13.6666 9.02083 13.6666 9.9375C13.6666 11.7569 13.0175 13.3056 11.7191 14.5833C10.4203 15.8611 8.8472 16.5 6.99998 16.5ZM6.99998 14.8333V3L3.45831 6.5C2.9722 6.95833 2.60776 7.47916 2.36498 8.0625C2.12165 8.64583 1.99998 9.27083 1.99998 9.9375C1.99998 11.2847 2.48609 12.4375 3.45831 13.3958C4.43054 14.3542 5.61109 14.8333 6.99998 14.8333Z" fill="#545762"/>
</svg>
