<svg width="64" height="64" viewBox="0 0 64 64" fill="none" xmlns="http://www.w3.org/2000/svg">
<path d="M7.55 16.67C7.55 14.25 5.59 12.3 3.18 12.3H1V38.19H3.18C5.6 38.19 7.55 36.23 7.55 33.82V29.95H14.3V20.55H7.55V16.67Z" fill="#64748B"/>
<path d="M35.68 20.55V29.95H38.3C40.58 29.95 42.42 31.79 42.42 34.07V37.9501H51.17V33.13C51.17 26.18 45.54 20.55 38.59 20.55H35.68Z" fill="#64748B"/>
<path d="M33.67 33.4099V19.1099C33.67 17.8799 32.68 16.8899 31.45 16.8899H18.51C17.28 16.8899 16.29 17.8799 16.29 19.1099V33.4099C16.29 34.6399 17.28 35.6299 18.51 35.6299H31.45C32.68 35.6299 33.67 34.6299 33.67 33.4099Z" fill="#64748B"/>
<path d="M53.23 39.97H40.48V45.38H53.23V39.97Z" fill="#64748B"/>
<path d="M27.44 2.45C27.44 1.77 27.17 1.16 26.72 0.72C26.28 0.27 25.67 0 24.99 0C23.63 0 22.54 1.1 22.54 2.45V14.89H27.44V2.45Z" fill="#64748B"/>
<path d="M62.96 45.84C62.42 45.68 61.87 45.99 61.72 46.52L59.94 52.64C50.6 48.3 43.22 55.19 33.84 53.35L31.86 46.52C31.71 45.99 31.16 45.68 30.62 45.84C30.09 45.99 29.79 46.55 29.94 47.08L33.55 59.51C34.22 61.81 36.36 63.42 38.76 63.42H54.83C57.23 63.42 59.37 61.81 60.04 59.51L63.65 47.08C63.79 46.55 63.49 46 62.96 45.84Z" fill="#64748B"/>
<path d="M20.54 3.73C18.54 2.91 16.63 2.25 15.67 2.25C13.21 2.25 11.21 4.25 11.21 6.71C11.21 9.18 13.21 11.17 15.67 11.17C16.62 11.17 18.54 10.51 20.54 9.69V3.73Z" fill="#64748B"/>
<path d="M38.76 6.69999C38.76 4.22999 36.76 2.23999 34.3 2.23999C33.35 2.23999 31.43 2.89999 29.44 3.71999V9.68999C31.44 10.51 33.35 11.17 34.3 11.17C36.76 11.16 38.76 9.15999 38.76 6.69999Z" fill="#64748B"/>
</svg>
