<?xml version="1.0" encoding="UTF-8"?>
<svg xmlns="http://www.w3.org/2000/svg" xmlns:xlink="http://www.w3.org/1999/xlink" width="20px" height="20px" viewBox="0 0 20 20" version="1.1">
<g id="surface1">
<path style=" stroke:none;fill-rule:evenodd;fill:rgb(0%,0%,0%);fill-opacity:1;" d="M 13.75 13.75 L 5 13.75 C 5 13.75 1.226562 13.363281 1.25 10 C 1.261719 8.101562 3.007812 6.40625 5 6.25 C 5 3.660156 6.65625 1.25 9.375 1.25 C 11.519531 1.25 12.953125 2.558594 13.460938 4.382812 C 16.558594 4.25 18.652344 6.699219 18.75 8.75 C 18.882812 11.507812 16 13.75 13.75 13.75 Z M 14.417969 3.140625 C 13.5 1.28125 11.589844 0 9.375 0 C 6.40625 0 3.980469 2.300781 3.769531 5.214844 C 1.589844 5.835938 0 7.742188 0 10 C 0 12.664062 2.210938 14.832031 5 14.984375 C 5 14.984375 13.644531 15 13.75 15 C 17.03125 15 20 12.34375 20 9.0625 C 20 5.902344 17.53125 3.328125 14.417969 3.140625 Z M 15.625 16.875 C 15.28125 16.875 15 17.15625 15 17.5 L 15 19.375 C 15 19.71875 15.28125 20 15.625 20 C 15.96875 20 16.25 19.71875 16.25 19.375 L 16.25 17.5 C 16.25 17.15625 15.96875 16.875 15.625 16.875 Z M 11.875 16.875 C 11.53125 16.875 11.25 17.15625 11.25 17.5 L 11.25 19.375 C 11.25 19.71875 11.53125 20 11.875 20 C 12.21875 20 12.5 19.71875 12.5 19.375 L 12.5 17.5 C 12.5 17.15625 12.21875 16.875 11.875 16.875 Z M 4.375 16.875 C 4.03125 16.875 3.75 17.15625 3.75 17.5 L 3.75 19.375 C 3.75 19.71875 4.03125 20 4.375 20 C 4.71875 20 5 19.71875 5 19.375 L 5 17.5 C 5 17.15625 4.71875 16.875 4.375 16.875 Z M 8.125 16.875 C 7.78125 16.875 7.5 17.15625 7.5 17.5 L 7.5 19.375 C 7.5 19.71875 7.78125 20 8.125 20 C 8.46875 20 8.75 19.71875 8.75 19.375 L 8.75 17.5 C 8.75 17.15625 8.46875 16.875 8.125 16.875 Z M 8.125 16.875 "/>
</g>
</svg>
