<svg width="805" height="805" viewBox="0 0 805 805" fill="none" xmlns="http://www.w3.org/2000/svg">
<g clip-path="url(#clip0_419_179)">
<path d="M741 242C628 262 511 277 396 273C342 273 288 270 235 265C178 260 120 254 64 241C64 241 63 241 62 241C61 240 61 240 60 240C68 320 79 399 93 478C101 523 110 569 122 614C129 643 136 675 152 700C158 709 168 714 179 718C200 727 222 732 244 736C291 744 338 747 385 747C391 747 398 747 404 747C415 747 426 747 437 747H438C474 746 509 744 544 739C578 734 616 728 645 710C652 705 657 698 661 689C667 675 672 661 676 647C688 606 697 564 706 522C723 429 737 335 747 241C746 241 745 241 743 241C743 242 742 242 741 242ZM722 108C708 111 692 113 677 116C582 128 486 132 390 131C294 131 196 127 102 108C92 106 96 90 107 92C122 95 137 98 153 100C253 114 356 116 457 114C544 112 633 110 718 92C729 90 733 106 722 108ZM739 82C636 69 533 64 430 61C427 61 425 61 423 61C409 60 395 60 381 59C332 59 283 61 234 64C179 68 124 72 69 81C45 85 21 95 9 117C-2 138 -1 164 8 185C18 210 41 219 66 225C67 225 68 225 69 225C75 227 81 228 88 229C96 231 103 232 110 233C111 233 112 233 112 234C155 241 199 246 242 249C287 253 332 255 377 256C377 256 378 256 379 256C384 256 390 257 395 257C407 257 418 257 430 257H431C520 257 609 247 697 233C698 232 699 232 699 232C708 230 717 229 727 228C730 227 734 227 737 226C738 226 738 226 739 226C764 222 789 214 799 188C807 166 810 137 796 116C783 96 762 85 739 82Z" fill="#64748B"/>
</g>
<defs>
<clipPath id="clip0_419_179">
<rect width="805" height="805" fill="white"/>
</clipPath>
</defs>
</svg>
