<svg width="10" height="18" viewBox="0 0 10 18" fill="none" xmlns="http://www.w3.org/2000/svg">
<path d="M4.99992 17.3333C3.84714 17.3333 2.86464 16.9272 2.05242 16.115C1.23964 15.3022 0.833252 14.3195 0.833252 13.1667C0.833252 12.5 0.979085 11.8783 1.27075 11.3017C1.56242 10.7256 1.97214 10.2361 2.49992 9.83335V3.16668C2.49992 2.47223 2.74297 1.88196 3.22909 1.39585C3.7152 0.909735 4.30547 0.666679 4.99992 0.666679C5.69436 0.666679 6.28464 0.909735 6.77075 1.39585C7.25686 1.88196 7.49992 2.47223 7.49992 3.16668V9.83335C8.0277 10.2361 8.43742 10.7256 8.72909 11.3017C9.02075 11.8783 9.16658 12.5 9.16658 13.1667C9.16658 14.3195 8.76047 15.3022 7.94825 16.115C7.13547 16.9272 6.1527 17.3333 4.99992 17.3333ZM4.16659 8.16668H5.83325V7.33335H4.99992V6.50001H5.83325V4.83335H4.99992V4.00001H5.83325V3.16668C5.83325 2.93057 5.75353 2.73251 5.59409 2.57251C5.43409 2.41307 5.23603 2.33335 4.99992 2.33335C4.76381 2.33335 4.56603 2.41307 4.40659 2.57251C4.24659 2.73251 4.16659 2.93057 4.16659 3.16668V8.16668Z" fill="#545762"/>
</svg>
