<svg width="20" height="18" viewBox="0 0 20 18" fill="none" xmlns="http://www.w3.org/2000/svg">
<path d="M18.905 14.4455L11.8706 1.48887C11.6844 1.14669 11.4093 0.861049 11.0744 0.66203C10.7395 0.46301 10.3571 0.357971 9.96754 0.357971C9.57796 0.357971 9.19559 0.46301 8.86068 0.66203C8.52578 0.861049 8.25072 1.14669 8.06449 1.48887L1.02282 14.4455C0.838512 14.7764 0.744132 15.1497 0.749087 15.5284C0.754042 15.907 0.858159 16.2778 1.05106 16.6037C1.24396 16.9296 1.51891 17.1992 1.84849 17.3857C2.17808 17.5722 2.5508 17.6691 2.92949 17.6666H16.9984C17.374 17.667 17.7432 17.5697 18.0698 17.3843C18.3965 17.1989 18.6693 16.9318 18.8616 16.6092C19.0539 16.2865 19.159 15.9194 19.1666 15.5439C19.1742 15.1684 19.0841 14.7974 18.905 14.4672V14.4455ZM8.88782 5.20109C8.88782 4.91377 9.00196 4.63822 9.20512 4.43506C9.40829 4.23189 9.68384 4.11775 9.97115 4.11775C10.2585 4.11775 10.534 4.23189 10.7372 4.43506C10.9404 4.63822 11.0545 4.91377 11.0545 5.20109V10.1772C11.0545 10.4645 10.9404 10.7401 10.7372 10.9432C10.534 11.1464 10.2585 11.2605 9.97115 11.2605C9.68384 11.2605 9.40829 11.1464 9.20512 10.9432C9.00196 10.7401 8.88782 10.4645 8.88782 10.1772V5.20109ZM10 14.9583C9.75435 14.9583 9.51418 14.8855 9.3099 14.749C9.10562 14.6125 8.9464 14.4185 8.85238 14.1915C8.75836 13.9645 8.73376 13.7147 8.78169 13.4737C8.82962 13.2328 8.94793 13.0114 9.12166 12.8377C9.29539 12.664 9.51673 12.5457 9.7577 12.4977C9.99866 12.4498 10.2484 12.4744 10.4754 12.5684C10.7024 12.6624 10.8964 12.8217 11.0329 13.0259C11.1694 13.2302 11.2423 13.4704 11.2423 13.7161C11.2423 14.0455 11.1114 14.3615 10.8784 14.5945C10.6455 14.8274 10.3295 14.9583 10 14.9583Z" fill="#FF9900"/>
</svg>
