<svg width="14" height="17" viewBox="0 0 14 17" fill="none" xmlns="http://www.w3.org/2000/svg">
<path d="M6.99998 16.5C5.15276 16.5 3.57998 15.8644 2.28165 14.5933C0.982757 13.3228 0.333313 11.7778 0.333313 9.95832C0.333313 9.04166 0.506924 8.18749 0.854146 7.39582C1.20137 6.60416 1.68054 5.90277 2.29165 5.29166L6.99998 0.666656L11.7083 5.29166C12.3194 5.90277 12.7986 6.60416 13.1458 7.39582C13.493 8.18749 13.6666 9.04166 13.6666 9.95832C13.6666 11.7778 13.0175 13.3228 11.7191 14.5933C10.4203 15.8644 8.8472 16.5 6.99998 16.5ZM2.04165 10.6667H11.9166C12.0833 9.66666 11.9894 8.81249 11.635 8.10416C11.2811 7.39582 10.9166 6.8611 10.5416 6.49999L6.99998 2.99999L3.45831 6.49999C3.08331 6.8611 2.71526 7.39582 2.35415 8.10416C1.99304 8.81249 1.88887 9.66666 2.04165 10.6667Z" fill="#545762"/>
</svg>
