<svg width="14" height="18" viewBox="0 0 14 18" fill="none" xmlns="http://www.w3.org/2000/svg">
<path d="M3.66665 17.3333C2.74998 17.3333 1.96526 17.0069 1.31248 16.3542C0.659702 15.7014 0.333313 14.9167 0.333313 14V5.66666C0.333313 4.74999 0.659702 3.96527 1.31248 3.31249C1.96526 2.65971 2.74998 2.33332 3.66665 2.33332H4.49998V0.666656H6.16665V2.33332H7.83331V0.666656H9.49998V2.33332H10.3333C11.25 2.33332 12.0347 2.65971 12.6875 3.31249C13.3403 3.96527 13.6666 4.74999 13.6666 5.66666V14C13.6666 14.9167 13.3403 15.7014 12.6875 16.3542C12.0347 17.0069 11.25 17.3333 10.3333 17.3333H3.66665ZM3.66665 7.33332H10.3333V5.66666H3.66665V7.33332ZM6.99998 14C7.58331 14 8.07637 13.8022 8.47915 13.4067C8.88192 13.0105 9.08331 12.5278 9.08331 11.9583C9.08331 11.5 8.95137 11.1075 8.68748 10.7808C8.42359 10.4547 7.86109 9.79166 6.99998 8.79166C6.12498 9.79166 5.55915 10.4583 5.30248 10.7917C5.04526 11.125 4.91665 11.5139 4.91665 11.9583C4.91665 12.5278 5.11804 13.0105 5.52081 13.4067C5.92359 13.8022 6.41665 14 6.99998 14Z" fill="#545762"/>
</svg>
