<?xml version="1.0" encoding="UTF-8"?>
<svg xmlns="http://www.w3.org/2000/svg" xmlns:xlink="http://www.w3.org/1999/xlink" width="20px" height="20px" viewBox="0 0 20 20" version="1.1">
<g id="surface1">
<path style=" stroke:none;fill-rule:nonzero;fill:rgb(16.078431%,17.647059%,19.607843%);fill-opacity:1;" d="M 15.417969 18.957031 C 13.464844 18.957031 11.875 17.367188 11.875 15.417969 L 11.875 15 C 11.875 14.660156 12.160156 14.375 12.5 14.375 C 12.839844 14.375 13.125 14.660156 13.125 15 L 13.125 15.417969 C 13.125 16.683594 14.148438 17.707031 15.417969 17.707031 C 16.683594 17.707031 17.707031 16.683594 17.707031 15.417969 C 17.707031 14.148438 16.683594 13.125 15.417969 13.125 L 1.667969 13.125 C 1.324219 13.125 1.042969 12.839844 1.042969 12.5 C 1.042969 12.160156 1.324219 11.875 1.667969 11.875 L 15.417969 11.875 C 17.367188 11.875 18.957031 13.464844 18.957031 15.417969 C 18.957031 17.367188 17.367188 18.957031 15.417969 18.957031 Z M 15.417969 18.957031 "/>
<path style=" stroke:none;fill-rule:nonzero;fill:rgb(16.078431%,17.647059%,19.607843%);fill-opacity:1;" d="M 15.417969 10.625 L 1.667969 10.625 C 1.324219 10.625 1.042969 10.339844 1.042969 10 C 1.042969 9.660156 1.324219 9.375 1.667969 9.375 L 15.417969 9.375 C 16.683594 9.375 17.707031 8.351562 17.707031 7.082031 C 17.707031 5.816406 16.683594 4.792969 15.417969 4.792969 C 14.148438 4.792969 13.125 5.816406 13.125 7.082031 L 13.125 7.5 C 13.125 7.839844 12.839844 8.125 12.5 8.125 C 12.160156 8.125 11.875 7.839844 11.875 7.5 L 11.875 7.082031 C 11.875 5.132812 13.464844 3.542969 15.417969 3.542969 C 17.367188 3.542969 18.957031 5.132812 18.957031 7.082031 C 18.957031 9.035156 17.367188 10.625 15.417969 10.625 Z M 15.417969 10.625 "/>
<path style=" stroke:none;fill-rule:nonzero;fill:rgb(16.078431%,17.647059%,19.607843%);fill-opacity:1;" d="M 7.757812 8.125 L 1.667969 8.125 C 1.324219 8.125 1.042969 7.84375 1.042969 7.5 C 1.042969 7.160156 1.324219 6.875 1.667969 6.875 L 7.757812 6.875 C 8.648438 6.875 9.375 6.152344 9.375 5.257812 C 9.375 4.367188 8.648438 3.640625 7.757812 3.640625 C 6.867188 3.640625 6.140625 4.367188 6.140625 5.257812 L 6.140625 5.574219 C 6.140625 5.917969 5.859375 6.199219 5.515625 6.199219 C 5.175781 6.199219 4.890625 5.925781 4.890625 5.574219 L 4.890625 5.257812 C 4.890625 3.675781 6.175781 2.390625 7.757812 2.390625 C 9.339844 2.390625 10.625 3.675781 10.625 5.257812 C 10.625 6.84375 9.339844 8.125 7.757812 8.125 Z M 7.757812 8.125 "/>
</g>
</svg>
